<svg width="271" height="72" viewBox="0 0 271 72" fill="none" xmlns="http://www.w3.org/2000/svg">
<path d="M101.889 19.304L89.9373 53H79.6653L67.7133 19.304H76.4493L84.8013 44.744L93.2013 19.304H101.889ZM103.688 39.56C103.688 36.808 104.2 34.392 105.224 32.312C106.28 30.232 107.704 28.632 109.496 27.512C111.288 26.392 113.288 25.832 115.496 25.832C117.384 25.832 119.032 26.216 120.44 26.984C121.88 27.752 122.984 28.76 123.752 30.008V26.216H131.96V53H123.752V49.208C122.952 50.456 121.832 51.464 120.392 52.232C118.984 53 117.336 53.384 115.448 53.384C113.272 53.384 111.288 52.824 109.496 51.704C107.704 50.552 106.28 48.936 105.224 46.856C104.2 44.744 103.688 42.312 103.688 39.56ZM123.752 39.608C123.752 37.56 123.176 35.944 122.024 34.76C120.904 33.576 119.528 32.984 117.896 32.984C116.264 32.984 114.872 33.576 113.72 34.76C112.6 35.912 112.04 37.512 112.04 39.56C112.04 41.608 112.6 43.24 113.72 44.456C114.872 45.64 116.264 46.232 117.896 46.232C119.528 46.232 120.904 45.64 122.024 44.456C123.176 43.272 123.752 41.656 123.752 39.608ZM146.106 17.48V53H137.898V17.48H146.106ZM164.246 53.384C161.622 53.384 159.254 52.824 157.142 51.704C155.062 50.584 153.414 48.984 152.198 46.904C151.014 44.824 150.422 42.392 150.422 39.608C150.422 36.856 151.03 34.44 152.246 32.36C153.462 30.248 155.126 28.632 157.238 27.512C159.35 26.392 161.718 25.832 164.342 25.832C166.966 25.832 169.334 26.392 171.446 27.512C173.558 28.632 175.222 30.248 176.438 32.36C177.654 34.44 178.262 36.856 178.262 39.608C178.262 42.36 177.638 44.792 176.39 46.904C175.174 48.984 173.494 50.584 171.35 51.704C169.238 52.824 166.87 53.384 164.246 53.384ZM164.246 46.28C165.814 46.28 167.142 45.704 168.23 44.552C169.35 43.4 169.91 41.752 169.91 39.608C169.91 37.464 169.366 35.816 168.278 34.664C167.222 33.512 165.91 32.936 164.342 32.936C162.742 32.936 161.414 33.512 160.358 34.664C159.302 35.784 158.774 37.432 158.774 39.608C158.774 41.752 159.286 43.4 160.31 44.552C161.366 45.704 162.678 46.28 164.246 46.28ZM190.825 30.68C191.785 29.208 192.985 28.056 194.425 27.224C195.865 26.36 197.465 25.928 199.225 25.928V34.616H196.969C194.921 34.616 193.385 35.064 192.361 35.96C191.337 36.824 190.825 38.36 190.825 40.568V53H182.617V26.216H190.825V30.68ZM207.276 23.432C205.836 23.432 204.652 23.016 203.724 22.184C202.828 21.32 202.38 20.264 202.38 19.016C202.38 17.736 202.828 16.68 203.724 15.848C204.652 14.984 205.836 14.552 207.276 14.552C208.684 14.552 209.836 14.984 210.732 15.848C211.66 16.68 212.124 17.736 212.124 19.016C212.124 20.264 211.66 21.32 210.732 22.184C209.836 23.016 208.684 23.432 207.276 23.432ZM211.356 26.216V53H203.148V26.216H211.356ZM224.984 46.232H236.6V53H215.816V46.472L226.952 32.984H215.912V26.216H236.36V32.744L224.984 46.232ZM239.485 39.56C239.485 36.808 239.997 34.392 241.021 32.312C242.077 30.232 243.501 28.632 245.293 27.512C247.085 26.392 249.085 25.832 251.293 25.832C253.181 25.832 254.829 26.216 256.237 26.984C257.677 27.752 258.781 28.76 259.549 30.008V26.216H267.757V53H259.549V49.208C258.749 50.456 257.629 51.464 256.189 52.232C254.781 53 253.133 53.384 251.245 53.384C249.069 53.384 247.085 52.824 245.293 51.704C243.501 50.552 242.077 48.936 241.021 46.856C239.997 44.744 239.485 42.312 239.485 39.56ZM259.549 39.608C259.549 37.56 258.973 35.944 257.821 34.76C256.701 33.576 255.325 32.984 253.693 32.984C252.061 32.984 250.669 33.576 249.517 34.76C248.397 35.912 247.837 37.512 247.837 39.56C247.837 41.608 248.397 43.24 249.517 44.456C250.669 45.64 252.061 46.232 253.693 46.232C255.325 46.232 256.701 45.64 257.821 44.456C258.973 43.272 259.549 41.656 259.549 39.608Z" fill="#8D4BDD"/>
<path d="M27.5 8L34.5542 16.1188L45.1767 14.4338L45.3618 25.1875L54.5822 30.7247L47.8117 39.0815L51.3157 49.25L40.7575 51.2997L36.9056 61.3415L27.5 56.125L18.0944 61.3415L14.2425 51.2997L3.6843 49.25L7.18834 39.0815L0.417788 30.7247L9.63823 25.1875L9.82334 14.4338L20.4458 16.1188L27.5 8Z" fill="#8D4BDD"/>
<path d="M27.5 22L31.4676 30.0391L40.3393 31.3283L33.9196 37.5859L35.4351 46.4217L27.5 42.25L19.5649 46.4217L21.0804 37.5859L14.6607 31.3283L23.5324 30.0391L27.5 22Z" fill="white"/>
</svg>
