<svg width="29" height="28" viewBox="0 0 29 28" fill="none" xmlns="http://www.w3.org/2000/svg">
<rect x="5.6001" y="13.3" width="18.55" height="2.1" rx="1.05" fill="white"/>
<rect x="16.8" y="19.2397" width="8.4" height="2.1" rx="1.05" transform="rotate(-45 16.8 19.2397)" fill="white"/>
<rect x="18.2849" y="7.70001" width="8.4" height="2.1" rx="1.05" transform="rotate(45 18.2849 7.70001)" fill="white"/>
<path fill-rule="evenodd" clip-rule="evenodd" d="M8.69995 0C4.28167 0 0.699951 3.58172 0.699951 8V8.74999C0.699951 9.32989 1.17005 9.79999 1.74995 9.79999C2.32985 9.79999 2.79995 10.2701 2.79995 10.85V19.2721C2.79995 19.8398 2.33973 20.3 1.77201 20.3C1.18944 20.3 0.716798 20.7863 0.815174 21.3605C1.46111 25.1308 4.74546 28 8.69995 28H20.7C25.1182 28 28.7 24.4183 28.7 20V8C28.7 3.58172 25.1182 0 20.7 0H8.69995ZM2.8 7.1C2.8 4.33858 5.03858 2.1 7.8 2.1H21.6C24.3614 2.1 26.6 4.33858 26.6 7.1V20.9C26.6 23.6614 24.3614 25.9 21.6 25.9H7.8C5.03858 25.9 2.8 23.6614 2.8 20.9V7.1Z" fill="white"/>
</svg>
