<svg width="24" height="20" viewBox="0 0 24 20" fill="none" xmlns="http://www.w3.org/2000/svg">
<mask id="path-1-inside-1" fill="white">
<path fill-rule="evenodd" clip-rule="evenodd" d="M15.8796 11.8745C17.5328 8.36306 16.5459 4.05853 13.3124 1.65048C9.6212 -1.09844 4.40009 -0.335038 1.65074 3.35558C-1.09861 7.0462 -0.335091 12.2665 3.35611 15.0154C6.82176 17.5963 11.636 17.0811 14.487 13.9539L22.4066 19.8518L23.9 17.8471L15.8798 11.8742L15.8796 11.8745ZM12.3168 2.98693C15.2697 5.18606 15.8806 9.36228 13.6811 12.3148C11.4816 15.2673 7.30471 15.878 4.35174 13.6789C1.39878 11.4797 0.787962 7.3035 2.98745 4.35101C5.18693 1.39851 9.36381 0.787793 12.3168 2.98693Z"/>
</mask>
<path fill-rule="evenodd" clip-rule="evenodd" d="M15.8796 11.8745C17.5328 8.36306 16.5459 4.05853 13.3124 1.65048C9.6212 -1.09844 4.40009 -0.335038 1.65074 3.35558C-1.09861 7.0462 -0.335091 12.2665 3.35611 15.0154C6.82176 17.5963 11.636 17.0811 14.487 13.9539L22.4066 19.8518L23.9 17.8471L15.8798 11.8742L15.8796 11.8745ZM12.3168 2.98693C15.2697 5.18606 15.8806 9.36228 13.6811 12.3148C11.4816 15.2673 7.30471 15.878 4.35174 13.6789C1.39878 11.4797 0.787962 7.3035 2.98745 4.35101C5.18693 1.39851 9.36381 0.787793 12.3168 2.98693Z" fill="black"/>
<path d="M15.8796 11.8745L14.9748 11.4485L16.6816 12.4718L15.8796 11.8745ZM13.3124 1.65048L12.7151 2.45251L13.3124 1.65048ZM1.65074 3.35558L0.848804 2.75817H0.848804L1.65074 3.35558ZM3.35611 15.0154L3.9534 14.2134H3.9534L3.35611 15.0154ZM14.487 13.9539L15.0843 13.1519L14.358 12.6111L13.748 13.2802L14.487 13.9539ZM22.4066 19.8518L21.8093 20.6539L22.6112 21.2511L23.2085 20.4492L22.4066 19.8518ZM23.9 17.8471L24.702 18.4445L25.2995 17.6425L24.4973 17.0451L23.9 17.8471ZM15.8798 11.8742L16.4771 11.0722L15.675 10.4749L15.0778 11.2769L15.8798 11.8742ZM13.6811 12.3148L12.8791 11.7174L13.6811 12.3148ZM12.3168 2.98693L12.9141 2.1849L12.3168 2.98693ZM4.35174 13.6789L3.75446 14.4809H3.75446L4.35174 13.6789ZM2.98745 4.35101L3.78938 4.94842H3.78938L2.98745 4.35101ZM16.7843 12.3004C18.6361 8.36713 17.5321 3.54617 13.9097 0.84845L12.7151 2.45251C15.5597 4.5709 16.4294 8.35899 14.9748 11.4485L16.7843 12.3004ZM13.9097 0.84845C9.77562 -2.23028 3.92809 -1.37533 0.848804 2.75817L2.45268 3.95299C4.8721 0.705255 9.46678 0.0334014 12.7151 2.45251L13.9097 0.84845ZM0.848804 2.75817C-2.23055 6.89177 -1.37534 12.7386 2.75883 15.8174L3.9534 14.2134C0.705157 11.7943 0.0333254 7.20063 2.45268 3.95299L0.848804 2.75817ZM2.75883 15.8174C6.64076 18.7084 12.0322 18.1308 15.226 14.6277L13.748 13.2802C11.2399 16.0313 7.00275 16.4843 3.9534 14.2134L2.75883 15.8174ZM23.0039 19.0498L15.0843 13.1519L13.8897 14.756L21.8093 20.6539L23.0039 19.0498ZM23.0981 17.2497L21.6047 19.2544L23.2085 20.4492L24.702 18.4445L23.0981 17.2497ZM15.2825 12.6763L23.3028 18.6491L24.4973 17.0451L16.4771 11.0722L15.2825 12.6763ZM16.6816 12.4718L16.6818 12.4716L15.0778 11.2769L15.0776 11.2772L16.6816 12.4718ZM14.483 12.9122C17.0125 9.51671 16.31 4.71391 12.9141 2.1849L11.7195 3.78895C14.2295 5.6582 14.7486 9.20785 12.8791 11.7174L14.483 12.9122ZM3.75446 14.4809C7.15029 17.0098 11.9536 16.3076 14.483 12.9122L12.8791 11.7174C11.0096 14.227 7.45913 14.7461 4.94903 12.8768L3.75446 14.4809ZM2.18551 3.7536C-0.343975 7.14907 0.358532 11.9519 3.75446 14.4809L4.94903 12.8768C2.43903 11.0076 1.9199 7.45793 3.78938 4.94842L2.18551 3.7536ZM12.9141 2.1849C9.51823 -0.344046 4.71492 0.35822 2.18551 3.7536L3.78938 4.94842C5.65893 2.43881 9.20939 1.91963 11.7195 3.78895L12.9141 2.1849Z" fill="black" mask="url(#path-1-inside-1)"/>
</svg>
